<?xml version="1.0" standalone="no"?>
<!DOCTYPE svg PUBLIC "-//W3C//DTD SVG 20010904//EN"
 "http://www.w3.org/TR/2001/REC-SVG-20010904/DTD/svg10.dtd">
<svg version="1.0" xmlns="http://www.w3.org/2000/svg"
 width="256.000000pt" height="256.000000pt" viewBox="0 0 256.000000 256.000000"
 preserveAspectRatio="xMidYMid meet">
<metadata>
Created by potrace 1.11, written by Peter Selinger 2001-2013
</metadata>
<g transform="translate(0.000000,256.000000) scale(0.100000,-0.100000)"
fill="#000000" stroke="none">
<path d="M1105 2540 c-91 -24 -136 -43 -173 -74 -27 -24 -40 -26 -148 -31
-295 -13 -362 -17 -402 -26 -136 -30 -248 -133 -288 -264 -26 -88 -35 -269
-35 -700 1 -617 12 -687 131 -828 42 -50 149 -100 235 -110 44 -6 343 -20 433
-21 17 0 33 -3 33 -6 1 -3 2 -60 3 -128 2 -80 -1 -122 -8 -123 -6 -1 -95 -2
-197 -3 -161 -1 -189 -4 -213 -19 -72 -47 -64 -165 12 -196 19 -8 247 -11 802
-9 757 3 776 3 802 23 75 57 36 193 -57 196 -16 0 -106 1 -200 2 l-170 2 0
130 -1 130 46 1 c98 2 379 15 416 19 143 19 249 91 311 213 43 84 45 92 58
397 6 133 6 584 0 710 -14 285 -15 295 -49 366 -52 107 -144 186 -251 214 -31
8 -116 17 -188 20 -371 16 -346 13 -381 40 -75 57 -178 85 -331 90 -95 3 -135
0 -190 -15z"/>
</g>
</svg>
